<svg width="60" height="60" xmlns="http://www.w3.org/2000/svg">

 <g>
  <title>background</title>
  <rect fill="none" id="canvas_background" height="402" width="582" y="-1" x="-1"/>
 </g>
 <g>
  <title>Layer 1</title>
  <path id="svg_2" d="m59.909,11.709c-0.002,-0.109 -0.014,-0.218 -0.044,-0.324l-0.146,0.042c-0.002,-0.003 -0.003,-0.006 -0.006,-0.008l0.149,-0.044c-1.637,-6.014 -6.74,-10.429 -12.862,-11.235l0,-0.14l-16,0l0,0l-0.181,0l-1.639,0l-0.18,0l0,0.001l-14.002,0c-6.929,0.012 -13.039,4.688 -14.856,11.361c-0.032,0.111 -0.043,0.224 -0.045,0.338c-0.061,0.141 -0.097,0.296 -0.097,0.46l0,1.84l0,46l39,0l17,0l4,0l0,-46l0,-1.84c0,-0.16 -0.033,-0.312 -0.091,-0.451zm-13.979,-9.669c5.371,0.381 9.974,3.94 11.724,8.96l-12.654,0l-0.204,0c-0.938,-3.868 -3.391,-7.069 -6.661,-9l6.841,0l0.954,0.04zm-2.93,11.96c0,3.309 -2.691,6 -6,6s-6,-2.691 -6,-6l0,-1l12,0l0,1zm-26,-1l12,0l0,1c0,3.309 -2.691,6 -6,6s-6,-2.691 -6,-6l0,-1zm14,-10.999c5.511,0.079 10.259,3.775 11.742,8.999l-11.742,0l0,-8.999zm-2,8.999l-11.742,0c1.483,-5.224 6.231,-8.92 11.742,-8.999l0,8.999zm-13.977,-9l6.841,0c-3.27,1.931 -5.723,5.132 -6.661,9l-0.203,0l-12.652,0c1.864,-5.334 6.94,-8.989 12.675,-9zm-13.023,11l12.802,0l0.198,0l0,1c0,3.309 -2.691,6 -6,6l-1,0c-3.309,0 -6,-2.691 -6,-6l0,-1zm52,31l-13,0l0,-10.5c0,-3.584 2.916,-6.5 6.5,-6.5s6.5,2.916 6.5,6.5l0,10.5zm-13,14l0,-12l13,0l0,12l-13,0zm17,-38.714l0,38.714l-2,0l0,-24.5c0,-4.687 -3.813,-8.5 -8.5,-8.5s-8.5,3.813 -8.5,8.5l0,20.5c-0.553,0 -1,0.447 -1,1s0.447,1 1,1l0,1l-1,0c-0.553,0 -1,0.447 -1,1l-1,0c0,-0.553 -0.447,-1 -1,-1l-1,0c-0.553,0 -1,0.447 -1,1l-1,0c0,-0.553 -0.447,-1 -1,-1l-1,0c-0.553,0 -1,0.447 -1,1l-1,0c0,-0.553 -0.447,-1 -1,-1l-1,0c-0.553,0 -1,0.447 -1,1l-1,0c0,-0.553 -0.447,-1 -1,-1l-1,0c-0.553,0 -1,0.447 -1,1l-1,0c0,-0.553 -0.447,-1 -1,-1l-1,0c-0.553,0 -1,0.447 -1,1l-1,0c0,-0.553 -0.447,-1 -1,-1l-1,0c-0.553,0 -1,0.447 -1,1l-1,0c0,-0.553 -0.447,-1 -1,-1l-1,0c-0.553,0 -1,0.447 -1,1l-1,0c0,-0.553 -0.447,-1 -1,-1l-1,0c-0.553,0 -1,0.447 -1,1l-1,0c0,-0.553 -0.447,-1 -1,-1l-1,0l0,-2l0,-35.714c0.05,0.057 0.108,0.108 0.16,0.163c0.102,0.109 0.206,0.217 0.314,0.321c0.086,0.083 0.175,0.162 0.265,0.241c0.112,0.098 0.226,0.193 0.343,0.285c0.094,0.074 0.19,0.145 0.287,0.215c0.121,0.087 0.246,0.169 0.372,0.249c0.101,0.064 0.202,0.127 0.306,0.186c0.132,0.075 0.267,0.145 0.403,0.213c0.105,0.053 0.21,0.106 0.318,0.154c0.143,0.063 0.289,0.119 0.435,0.174c0.108,0.041 0.215,0.083 0.325,0.119c0.157,0.051 0.317,0.092 0.477,0.133c0.106,0.027 0.21,0.059 0.318,0.082c0.181,0.039 0.365,0.065 0.55,0.091c0.092,0.013 0.182,0.032 0.275,0.042c0.281,0.029 0.564,0.046 0.852,0.046l1,0c0.338,0 0.669,-0.028 0.996,-0.069c0.094,-0.012 0.187,-0.028 0.28,-0.043c0.247,-0.04 0.489,-0.091 0.728,-0.153c0.083,-0.021 0.166,-0.04 0.248,-0.064c0.307,-0.09 0.607,-0.195 0.898,-0.32c0.045,-0.019 0.086,-0.043 0.13,-0.063c0.247,-0.112 0.487,-0.236 0.721,-0.372c0.081,-0.047 0.159,-0.095 0.238,-0.145c0.212,-0.133 0.416,-0.275 0.614,-0.427c0.055,-0.042 0.113,-0.081 0.167,-0.125c0.243,-0.196 0.474,-0.406 0.692,-0.629c0.049,-0.05 0.094,-0.104 0.142,-0.156c0.169,-0.182 0.329,-0.371 0.481,-0.567c0.057,-0.074 0.113,-0.148 0.167,-0.224c0.157,-0.219 0.303,-0.445 0.437,-0.679c0.019,-0.033 0.043,-0.063 0.062,-0.096c0.019,0.033 0.043,0.063 0.062,0.096c0.134,0.234 0.281,0.46 0.437,0.679c0.054,0.076 0.11,0.15 0.167,0.224c0.152,0.197 0.312,0.386 0.481,0.567c0.048,0.052 0.092,0.106 0.142,0.156c0.218,0.223 0.449,0.433 0.692,0.629c0.054,0.044 0.112,0.083 0.167,0.125c0.198,0.152 0.402,0.294 0.614,0.427c0.079,0.049 0.157,0.098 0.238,0.145c0.233,0.135 0.473,0.26 0.721,0.372c0.044,0.02 0.086,0.044 0.13,0.063c0.29,0.125 0.591,0.23 0.898,0.32c0.082,0.024 0.165,0.042 0.248,0.064c0.239,0.062 0.481,0.113 0.728,0.153c0.093,0.015 0.186,0.031 0.28,0.043c0.325,0.041 0.656,0.069 0.994,0.069s0.669,-0.028 0.996,-0.069c0.094,-0.012 0.187,-0.028 0.28,-0.043c0.247,-0.04 0.489,-0.091 0.728,-0.153c0.083,-0.021 0.166,-0.04 0.248,-0.064c0.307,-0.09 0.607,-0.195 0.898,-0.32c0.045,-0.019 0.086,-0.043 0.13,-0.063c0.247,-0.112 0.487,-0.236 0.721,-0.372c0.081,-0.047 0.159,-0.095 0.238,-0.145c0.212,-0.133 0.416,-0.275 0.614,-0.427c0.055,-0.042 0.113,-0.081 0.167,-0.125c0.243,-0.196 0.474,-0.406 0.692,-0.629c0.049,-0.05 0.094,-0.104 0.142,-0.156c0.169,-0.182 0.329,-0.371 0.481,-0.567c0.057,-0.074 0.113,-0.148 0.167,-0.224c0.157,-0.219 0.303,-0.445 0.437,-0.679c0.019,-0.033 0.043,-0.063 0.062,-0.096c0.019,0.033 0.043,0.063 0.062,0.096c0.134,0.234 0.281,0.46 0.437,0.679c0.054,0.076 0.11,0.15 0.167,0.224c0.152,0.197 0.312,0.386 0.481,0.567c0.048,0.052 0.092,0.106 0.142,0.156c0.218,0.223 0.449,0.433 0.692,0.629c0.054,0.044 0.112,0.083 0.167,0.125c0.198,0.152 0.402,0.294 0.614,0.427c0.079,0.049 0.157,0.098 0.238,0.145c0.233,0.135 0.473,0.26 0.721,0.372c0.044,0.02 0.086,0.044 0.13,0.063c0.29,0.125 0.591,0.23 0.898,0.32c0.082,0.024 0.165,0.042 0.248,0.064c0.239,0.062 0.481,0.113 0.728,0.153c0.093,0.015 0.186,0.031 0.28,0.043c0.325,0.041 0.656,0.069 0.994,0.069s0.669,-0.028 0.996,-0.069c0.094,-0.012 0.187,-0.028 0.28,-0.043c0.247,-0.04 0.489,-0.091 0.728,-0.153c0.083,-0.021 0.166,-0.04 0.248,-0.064c0.307,-0.09 0.607,-0.195 0.898,-0.32c0.045,-0.019 0.086,-0.043 0.13,-0.063c0.247,-0.112 0.487,-0.236 0.721,-0.372c0.081,-0.047 0.159,-0.095 0.238,-0.145c0.212,-0.133 0.416,-0.275 0.614,-0.427c0.055,-0.042 0.113,-0.081 0.167,-0.125c0.243,-0.196 0.474,-0.406 0.692,-0.629c0.049,-0.05 0.094,-0.104 0.142,-0.156c0.169,-0.182 0.329,-0.371 0.481,-0.567c0.057,-0.074 0.113,-0.148 0.167,-0.224c0.157,-0.219 0.303,-0.445 0.437,-0.679c0.019,-0.033 0.043,-0.063 0.062,-0.096c0.019,0.033 0.043,0.063 0.062,0.096c0.134,0.234 0.281,0.46 0.437,0.679c0.054,0.076 0.11,0.15 0.167,0.224c0.152,0.197 0.312,0.386 0.481,0.567c0.048,0.052 0.092,0.106 0.142,0.156c0.218,0.223 0.449,0.433 0.692,0.629c0.054,0.044 0.112,0.083 0.167,0.125c0.198,0.152 0.402,0.294 0.614,0.427c0.079,0.049 0.157,0.098 0.238,0.145c0.233,0.135 0.473,0.26 0.721,0.372c0.044,0.02 0.086,0.044 0.13,0.063c0.29,0.125 0.591,0.23 0.898,0.32c0.082,0.024 0.165,0.042 0.248,0.064c0.239,0.062 0.481,0.113 0.728,0.153c0.093,0.015 0.186,0.031 0.28,0.043c0.325,0.041 0.656,0.069 0.994,0.069l1,0c0.288,0 0.571,-0.017 0.851,-0.047c0.093,-0.01 0.183,-0.029 0.276,-0.042c0.185,-0.026 0.369,-0.053 0.55,-0.091c0.108,-0.023 0.212,-0.055 0.318,-0.082c0.16,-0.041 0.321,-0.082 0.477,-0.133c0.11,-0.036 0.217,-0.079 0.325,-0.119c0.147,-0.055 0.293,-0.111 0.435,-0.174c0.108,-0.048 0.213,-0.101 0.318,-0.154c0.136,-0.068 0.271,-0.137 0.403,-0.213c0.104,-0.059 0.205,-0.122 0.306,-0.186c0.126,-0.08 0.25,-0.162 0.371,-0.249c0.098,-0.07 0.194,-0.142 0.288,-0.216c0.117,-0.092 0.23,-0.186 0.342,-0.284c0.09,-0.079 0.179,-0.158 0.265,-0.241c0.108,-0.104 0.211,-0.211 0.314,-0.321c0.053,-0.054 0.111,-0.105 0.161,-0.162zm-6,0.714l-1,0c-3.309,0 -6,-2.691 -6,-6l0,-1l0.198,0l12.802,0l0,1c0,3.309 -2.691,6 -6,6z"/>
  <path id="svg_3" d="m4,53l33,0l0,-28l-33,0l0,28zm2,-26l29,0l0,24l-29,0l0,-24z"/>
  <path id="svg_4" d="m15,38c0.256,0 0.512,-0.098 0.707,-0.293l4,-4c0.391,-0.391 0.391,-1.023 0,-1.414s-1.023,-0.391 -1.414,0l-4,4c-0.391,0.391 -0.391,1.023 0,1.414c0.195,0.195 0.451,0.293 0.707,0.293z"/>
  <path id="svg_5" d="m15,43c0.256,0 0.512,-0.098 0.707,-0.293l2,-2c0.391,-0.391 0.391,-1.023 0,-1.414s-1.023,-0.391 -1.414,0l-2,2c-0.391,0.391 -0.391,1.023 0,1.414c0.195,0.195 0.451,0.293 0.707,0.293z"/>
  <path id="svg_6" d="m18.29,37.29c-0.181,0.189 -0.29,0.45 -0.29,0.71s0.109,0.52 0.29,0.71c0.189,0.18 0.45,0.29 0.71,0.29s0.52,-0.11 0.71,-0.29c0.18,-0.19 0.29,-0.45 0.29,-0.71s-0.11,-0.521 -0.29,-0.71c-0.37,-0.37 -1.05,-0.37 -1.42,0z"/>
  <path id="svg_7" d="m20.293,36.707c0.195,0.195 0.451,0.293 0.707,0.293s0.512,-0.098 0.707,-0.293l3,-3c0.391,-0.391 0.391,-1.023 0,-1.414s-1.023,-0.391 -1.414,0l-3,3c-0.391,0.391 -0.391,1.023 0,1.414z"/>
  <path id="svg_8" d="m23.293,37.293l-9,9c-0.391,0.391 -0.391,1.023 0,1.414c0.195,0.195 0.451,0.293 0.707,0.293s0.512,-0.098 0.707,-0.293l9,-9c0.391,-0.391 0.391,-1.023 0,-1.414s-1.023,-0.391 -1.414,0z"/>
  <path id="svg_9" d="m25.29,35.29c-0.181,0.189 -0.29,0.439 -0.29,0.71c0,0.27 0.109,0.52 0.29,0.71c0.189,0.18 0.439,0.29 0.71,0.29c0.27,0 0.52,-0.11 0.7,-0.29c0.19,-0.19 0.3,-0.45 0.3,-0.71c0,-0.271 -0.11,-0.521 -0.29,-0.71c-0.37,-0.37 -1.05,-0.37 -1.42,0z"/>
  <path id="svg_10" d="m8,54l-1,0c-0.553,0 -1,0.447 -1,1s0.447,1 1,1l1,0c0.553,0 1,-0.447 1,-1s-0.447,-1 -1,-1z"/>
  <path id="svg_11" d="m3,56l1,0c0.553,0 1,-0.447 1,-1s-0.447,-1 -1,-1l-1,0c-0.553,0 -1,0.447 -1,1s0.447,1 1,1z"/>
  <path id="svg_12" d="m16,54l-1,0c-0.553,0 -1,0.447 -1,1s0.447,1 1,1l1,0c0.553,0 1,-0.447 1,-1s-0.447,-1 -1,-1z"/>
  <path id="svg_13" d="m12,54l-1,0c-0.553,0 -1,0.447 -1,1s0.447,1 1,1l1,0c0.553,0 1,-0.447 1,-1s-0.447,-1 -1,-1z"/>
  <path id="svg_14" d="m24,54l-1,0c-0.553,0 -1,0.447 -1,1s0.447,1 1,1l1,0c0.553,0 1,-0.447 1,-1s-0.447,-1 -1,-1z"/>
  <path id="svg_15" d="m20,54l-1,0c-0.553,0 -1,0.447 -1,1s0.447,1 1,1l1,0c0.553,0 1,-0.447 1,-1s-0.447,-1 -1,-1z"/>
  <path id="svg_16" d="m32,54l-1,0c-0.553,0 -1,0.447 -1,1s0.447,1 1,1l1,0c0.553,0 1,-0.447 1,-1s-0.447,-1 -1,-1z"/>
  <path id="svg_17" d="m28,54l-1,0c-0.553,0 -1,0.447 -1,1s0.447,1 1,1l1,0c0.553,0 1,-0.447 1,-1s-0.447,-1 -1,-1z"/>
  <path id="svg_18" d="m36,54l-1,0c-0.553,0 -1,0.447 -1,1s0.447,1 1,1l1,0c0.553,0 1,-0.447 1,-1s-0.447,-1 -1,-1z"/>
 </g>
</svg>